<?xml version="1.0" encoding="UTF-8"?>
<!DOCTYPE svg PUBLIC "-//W3C//DTD SVG 1.1//EN" "http://www.w3.org/Graphics/SVG/1.1/DTD/svg11.dtd">
<!-- Creator: CorelDRAW 2021 (64-Bit) -->
<svg xmlns="http://www.w3.org/2000/svg" xml:space="preserve" width="705.556mm" height="705.556mm" version="1.1" style="shape-rendering:geometricPrecision; text-rendering:geometricPrecision; image-rendering:optimizeQuality; fill-rule:evenodd; clip-rule:evenodd"
viewBox="0 0 70555.56 70555.56"
 xmlns:xlink="http://www.w3.org/1999/xlink"
 xmlns:xodm="http://www.corel.com/coreldraw/odm/2003">
 <defs>
  <style type="text/css">
   <![CDATA[
    .fil0 {fill:#044935;fill-rule:nonzero}
    .fil1 {fill:white;fill-rule:nonzero}
    .fil3 {fill:url(#id0);fill-rule:nonzero}
    .fil2 {fill:url(#id1);fill-rule:nonzero}
   ]]>
  </style>
  <linearGradient id="id0" gradientUnits="userSpaceOnUse" x1="37144.25" y1="35102.91" x2="37144.25" y2="42692.93">
   <stop offset="0" style="stop-opacity:1; stop-color:white"/>
   <stop offset="1" style="stop-opacity:1; stop-color:#044935"/>
  </linearGradient>
  <linearGradient id="id1" gradientUnits="userSpaceOnUse" xlink:href="#id0" x1="32549.88" y1="37532.81" x2="32549.88" y2="28988.86">
  </linearGradient>
 </defs>
 <g id="__x0023_Layer_x0020_1">
  <metadata id="CorelCorpID_0Corel-Layer"/>
  <g id="_2121152861648">
   <polygon class="fil0" points="42212.13,44728.17 24818.65,44728.17 24818.65,27762.4 42212.13,27762.4 "/>
  </g>
  <path class="fil1" d="M32559.54 31520.85l-0.01 0c-2234.51,0 -4045.93,1811.42 -4045.93,4045.93l0 6291.38c0,707.18 573.29,1280.47 1280.47,1280.47 707.19,0 1280.47,-573.29 1280.47,-1280.47l0 -6361.94c0,-1471.99 1150.18,-2674.89 2600.76,-2760.16 54.54,-3.21 109.36,-5.31 164.7,-5.31l0.01 0c1418.2,0 2586.36,1067.75 2746.15,2443.08 -197.65,-2050.05 -1924.72,-3652.98 -4026.62,-3652.98z"/>
  <path class="fil2" d="M31074.54 38364.08l0 -2867.86c0,-1471.99 1150.18,-2674.89 2600.76,-2760.16 54.54,-3.21 109.36,-5.31 164.7,-5.31l0.01 0c1418.2,0 2586.36,1067.75 2746.15,2443.08 -197.65,-2050.05 -1924.72,-3652.98 -4026.62,-3652.98l-0.01 0c-2234.51,0 -4045.93,1811.42 -4045.93,4045.93l0 2797.3 2560.94 0z"/>
  <path class="fil1" d="M33840.02 30169.81l-0.02 0c-2941.69,0 -5326.4,2384.72 -5326.4,5326.41l0 70.56c0,-2234.51 1811.42,-4045.93 4045.93,-4045.93l0.01 0c2101.9,0 3828.97,1602.93 4026.62,3652.98 12.3,105.82 19.32,213.26 19.32,322.39l0 70.56 0 896.41 0 626.12c0,410.06 -332.43,742.49 -742.5,742.49 -399.43,0 -724.27,-315.64 -740.91,-710.97 33.32,1088.07 925.22,1960.05 2021.37,1960.05l0.01 0c1117.25,0 2022.97,-905.71 2022.97,-2022.97l0 -381.6 0 -1180.09c0,-2941.69 -2384.72,-5326.41 -5326.4,-5326.41z"/>
  <path class="fil3" d="M35919.13 33673.81c426.96,486.71 686.34,1124.08 686.34,1822.41l0 1593.09c0,410.07 -332.42,742.49 -742.49,742.49 -399.43,0 -724.27,-315.64 -740.91,-710.97 33.32,1088.07 925.22,1960.05 2021.37,1960.05l0.01 0c1117.25,0 2022.97,-905.71 2022.97,-2022.97l0 -1561.7c0,-640.13 -113.03,-1253.85 -320.04,-1822.4l-2927.25 0z"/>
  <path class="fil1" d="M37143.45 39080.88l-0.01 0c-1096.15,0 -1988.05,-871.98 -2021.37,-1960.05 -0.44,-10.54 -1.59,-20.88 -1.59,-31.52l0 -31.4 0 -182.46 0 -1054.06c0,-707.18 -573.29,-1280.47 -1280.47,-1280.47 -707.19,0 -1280.47,573.29 -1280.47,1280.48l0 1267.91c0,1824.44 1479,3303.44 3303.43,3303.44l0.01 0c1824.44,0 3303.44,-1479 3303.44,-3303.44l0 -31.4c0,1117.26 -905.72,2022.97 -2022.97,2022.97z"/>
 </g>
</svg>
