<?xml version="1.0" encoding="utf-8"?>
<!-- Generator: Adobe Illustrator 25.4.1, SVG Export Plug-In . SVG Version: 6.00 Build 0)  -->
<svg version="1.1" id="Layer_1" xmlns="http://www.w3.org/2000/svg" xmlns:xlink="http://www.w3.org/1999/xlink" x="0px" y="0px"
	 viewBox="0 0 2000 2000" style="enable-background:new 0 0 2000 2000;" xml:space="preserve">
<style type="text/css">
	.st0{fill:#044935;}
	.st1{fill:#FFFFFF;}
	.st2{fill:url(#SVGID_1_);}
	.st3{fill:url(#SVGID_00000065771206499916309030000012596581566707797413_);}
</style>
<rect class="st0" width="2000" height="2000"/>
<g>
	<g>
		<g>
			<path class="st1" d="M483.18,854.49L483.18,854.49c-63.34,0-114.69,51.35-114.69,114.69v178.34c0,20.05,16.25,36.3,36.3,36.3h0
				c20.05,0,36.3-16.25,36.3-36.3V967.17c0-41.73,32.6-75.82,73.72-78.24c1.55-0.09,3.1-0.15,4.67-0.15h0
				c40.2,0,73.31,30.27,77.84,69.25C591.72,899.92,542.76,854.49,483.18,854.49z"/>
			<linearGradient id="SVGID_1_" gradientUnits="userSpaceOnUse" x1="482.9043" y1="1024.9048" x2="482.9043" y2="782.7138">
				<stop  offset="0" style="stop-color:#FFFFFF"/>
				<stop  offset="1" style="stop-color:#044935"/>
			</linearGradient>
			<path class="st2" d="M441.08,1048.47v-81.29c0-41.73,32.6-75.82,73.72-78.24c1.55-0.09,3.1-0.15,4.67-0.15h0
				c40.2,0,73.31,30.27,77.84,69.25c-5.6-58.11-54.56-103.55-114.14-103.55h0c-63.34,0-114.69,51.35-114.69,114.69v79.29H441.08z"/>
			<path class="st1" d="M519.48,816.19L519.48,816.19c-83.39,0-150.99,67.6-150.99,150.98v2c0-63.34,51.35-114.69,114.69-114.69h0
				c59.58,0,108.54,45.44,114.14,103.55c0.35,3,0.55,6.05,0.55,9.14v2v25.41v17.75c0,11.62-9.42,21.05-21.05,21.05h0
				c-11.32,0-20.53-8.95-21-20.15c0.94,30.84,26.23,55.56,57.3,55.56h0c31.67,0,57.34-25.67,57.34-57.34v-10.82v-33.45
				C670.46,883.79,602.86,816.19,519.48,816.19z"/>
		</g>
		
			<linearGradient id="SVGID_00000038397959041169819820000014601681901757289632_" gradientUnits="userSpaceOnUse" x1="613.1382" y1="956.0258" x2="613.1382" y2="1171.1761">
			<stop  offset="0" style="stop-color:#FFFFFF"/>
			<stop  offset="1" style="stop-color:#044935"/>
		</linearGradient>
		<path style="fill:url(#SVGID_00000038397959041169819820000014601681901757289632_);" d="M578.41,915.52
			c12.1,13.8,19.46,31.86,19.46,51.66v45.16c0,11.62-9.42,21.05-21.05,21.05h0c-11.32,0-20.53-8.95-21-20.15
			c0.94,30.84,26.23,55.56,57.3,55.56h0c31.67,0,57.34-25.67,57.34-57.34v-44.27c0-18.15-3.2-35.54-9.07-51.66H578.41z"/>
		<path class="st1" d="M613.12,1068.79L613.12,1068.79c-31.07,0-56.35-24.72-57.3-55.56c-0.01-0.3-0.05-0.59-0.05-0.89v-0.89v-5.17
			v-29.88c0-20.05-16.25-36.3-36.3-36.3h0c-20.05,0-36.3,16.25-36.3,36.3v35.94c0,51.72,41.92,93.64,93.64,93.64h0
			c51.72,0,93.64-41.92,93.64-93.64v-0.89C670.46,1043.11,644.79,1068.79,613.12,1068.79z"/>
	</g>
	<g>
		<g>
			<path class="st1" d="M838.74,909.47c0.35-13.89-3.84-26.03-12.44-36.09c-8.53-9.97-19.27-15.03-31.92-15.03h-75.26v156.97h21.7
				c14.6,0,21.7-6.16,21.7-18.83v-34.96h26.11c14.56,0,26.58-5.21,35.71-15.48C833.56,935.7,838.4,923.39,838.74,909.47z
				 M778.13,927.21h-15.6v-40.75h15.6c14.43,0,22.05,7.04,22.05,20.37C800.18,920.16,792.55,927.21,778.13,927.21z"/>
			<path class="st1" d="M951.98,876.71v42.37h-36.21v-42.37c0-12.67-7.1-18.83-21.7-18.83h-21.7v157.45h21.7
				c14.6,0,21.7-6.16,21.7-18.83V953.4h36.21v43.09c0,12.67,7.1,18.83,21.7,18.83c14.6,0,21.7-6.16,21.7-18.83V857.88h-21.7
				C959.08,857.88,951.98,864.04,951.98,876.71z"/>
			<path class="st1" d="M1172.23,980.82l-49.49-107.83c-4.56-10.18-11.37-15.11-20.8-15.11h-14.04l-56.02,122.93
				c-1.87,4.1-2.81,8.33-2.81,12.57c0,4.11,1.91,8.9,5.68,14.23c3.67,5.19,9.67,7.71,18.36,7.71c8.45,0,14.4-4.9,18.18-14.98
				l5.02-13.47h51.51l5.02,13.47c3.78,10.08,9.8,14.98,18.42,14.98c8.84,0,14.86-2.5,18.4-7.64c3.66-5.3,5.51-10.07,5.51-14.18
				C1175.15,989.27,1174.17,985.01,1172.23,980.82z M1088.95,952.55l13.1-35.64l13.1,35.64H1088.95z"/>
			<path class="st1" d="M1306.38,876.71v56.58l-55.6-66.31c-4.16-6.25-10.55-9.1-20.23-9.1l-21.72,0.11v157.34h21.7
				c14.6,0,21.7-6.16,21.7-18.83v-56.8l56.55,67.25c4.75,5.64,11.06,8.38,19.29,8.38c14.6,0,21.7-6.16,21.7-18.83V857.88h-21.7
				C1313.48,857.88,1306.38,864.04,1306.38,876.71z"/>
			<path class="st1" d="M1480.78,998.28v-17.04h-52.12V953.4h30.9c11.22,0,16.44-5.45,16.44-17.16v-17.16h-47.34v-27.13h35.68
				c11.22,0,16.44-5.41,16.44-17.04v-17.04h-95.52v157.45h79.08C1475.56,1015.32,1480.78,1009.91,1480.78,998.28z"/>
			<path class="st1" d="M1614.32,928.22c-2.52-1.73-9.01-4.44-19.15-8c-10.41-3.64-18.61-7.06-24.37-10.16
				c-6.36-3.42-9.58-7.69-9.58-12.67c-0.3-3.88,1.47-6.13,3.01-7.3c6.03-4.6,20.64-2.52,46,6.52c3.41,0.89,6.46,0.5,9.16-1.23
				c5.46-3.51,9.53-12.5,12.12-26.73c-22.83-10.62-41.87-15.93-56.69-15.43c-14.89,0.38-27.24,5.15-36.71,14.16
				c-9.69,9.15-14.79,21.5-15.17,36.7c-0.39,15.24,5.08,26.4,16.69,34.12c1.93,1.83,6.53,4.6,19.07,8.73
				c10.44,3.44,18.7,6.59,24.55,9.35c6.54,3.09,9.85,7.45,9.85,12.95c0,9-13.65,10-18.14,10.33c-11.14,0.82-28.69-4.15-53.62-15.19
				c-4.57,4.47-6.89,11.8-6.89,21.83c0,10.47,6.64,17.8,20.3,22.4c14.16,4.77,28.97,7.19,44.02,7.19c14.76,0,27.16-4.53,36.86-13.47
				c10.05-9.14,15.15-21.74,15.15-37.46C1630.79,949.2,1625.24,936.87,1614.32,928.22z"/>
		</g>
		<g>
			<path class="st1" d="M775.29,1067.03v34.86l-33.48-39.93c-2.28-3.42-5.79-4.91-11-4.94l-11.67,0.06V1146h11.66
				c7.95,0,11.66-3.18,11.66-10.01V1101l34.03,40.46c2.56,3.05,5.99,4.53,10.47,4.53c7.95,0,11.66-3.18,11.66-10.01v-78.96h-11.66
				C778.99,1057.03,775.29,1060.2,775.29,1067.03z"/>
			<path class="st1" d="M911.73,1137.02v-8.97h-30.01v-17.7h18.62c5.97,0,8.63-2.79,8.63-9.04v-9.05h-27.25v-17.28h21.37
				c5.97,0,8.63-2.77,8.63-8.98v-8.97h-53.32V1146h44.69C909.07,1146,911.73,1143.23,911.73,1137.02z"/>
			<path class="st1" d="M1035.51,1057.03h-63.96v8.97c0,6.21,2.79,8.98,9.04,8.98h15.73v71.15h11.66c7.95,0,11.66-3.18,11.66-10.01
				v-61.15h15.87c6.25,0,9.04-2.77,9.04-8.98C1044.55,1059.79,1041.76,1057.03,1035.51,1057.03z"/>
			<path class="st1" d="M1199.48,1056.68c-4.69,0.04-7.72,2.65-9.53,8.21l-12.04,36.75l-8.42-18.66c-2.57-5.7-6.17-8.47-11.01-8.47
				c-4.85,0-8.5,2.78-11.15,8.5l-8.58,18.61l-11.87-36.72c-1.81-5.56-4.86-8.17-9.6-8.2c-5.06-0.14-8.3,1.09-10.07,3.34
				c-1.89,2.41-2.85,4.83-2.85,7.22c0,2.62,0.5,5.5,1.49,8.55l22.95,70.48h8.41c4.8,0,8.42-2.82,11.08-8.62l10.05-21.94l14.05,30.56
				h6.93c4.87,0,8.64-2.84,11.52-8.67l20.12-61.81c0.99-3.01,1.49-5.85,1.49-8.47c0-2.38-0.98-4.81-2.91-7.24
				C1207.73,1057.78,1204.39,1056.58,1199.48,1056.68z"/>
			<path class="st1" d="M1353.61,1067.1c-8.73-8.51-20.19-12.83-34.07-12.83c-13.88,0-25.35,4.32-34.1,12.83
				c-8.74,8.5-13.17,19.77-13.17,33.51c0,13.74,4.45,24.99,13.23,33.44c8.8,8.47,20.19,12.77,33.87,12.77
				c13.68,0,25.12-4.3,34.01-12.77c8.86-8.45,13.36-19.7,13.36-33.43C1366.74,1086.87,1362.33,1075.6,1353.61,1067.1z
				 M1337.51,1119.08c-4.52,4.95-10.57,7.45-17.97,7.45c-7.4,0-13.45-2.48-17.99-7.37c-4.5-4.85-6.79-11.08-6.79-18.51
				c0-7.42,2.28-13.68,6.78-18.6c4.54-4.96,10.61-7.49,18.04-7.49c7.43,0,13.47,2.51,17.97,7.46c4.45,4.89,6.7,11.13,6.7,18.53
				S1341.98,1114.19,1337.51,1119.08z"/>
			<path class="st1" d="M1496.95,1136.14c0.12-2.71-1.35-5.91-4.36-9.49l-13.78-18.82l1.93-1.09c8.68-4.9,12.9-12.78,12.9-24.09
				c0-6.18-2.39-12.08-7.09-17.54c-4.7-5.44-10.42-8.09-17.5-8.09h-42.49V1146h11.66c7.95,0,11.66-3.18,11.66-10.01v-29.28
				l25.1,34.32c3.13,3.6,6.24,5.53,9.14,5.63c3.05,0.07,5.85-0.96,8.63-3.24C1495.46,1141.19,1496.83,1138.81,1496.95,1136.14z
				 M1459.69,1096.94h-9.81v-25.13h9.81c8.72,0,13.53,4.46,13.53,12.57C1473.21,1090.11,1470.87,1096.94,1459.69,1096.94z"/>
			<path class="st1" d="M1631.49,1136.12c0.19-2.64-1.15-5.58-3.98-8.73l-22.9-26.09l22.89-25.94c2.79-3.07,4.11-5.99,3.92-8.67
				c-0.2-2.76-1.59-5.26-4.27-7.65c-2.63-2.36-5.41-3.29-8.49-2.92c-3.11,0.39-6.07,2.31-8.79,5.68l-29.79,32.99v-37.76h-23.32V1146
				h11.66c7.95,0,11.66-3.18,11.66-10.01v-28.04l29.72,33.06c2.79,3.46,5.66,5.3,8.86,5.69c3.12,0.37,5.92-0.58,8.55-2.95
				C1629.9,1141.33,1631.3,1138.83,1631.49,1136.12z"/>
		</g>
	</g>
</g>
</svg>
